<svg id="Calque_1" data-name="Calque 1" xmlns="http://www.w3.org/2000/svg" viewBox="0 0 1155 672"><defs><style>.cls-1{fill:#e0b658;}.cls-2{fill:#2d4838;}.cls-3{fill:#7bb5b1;}.cls-4,.cls-5,.cls-9{fill:#2f4739;}.cls-5,.cls-9{font-size:90.2px;font-family:Brother-1816-Medium, "Brother 1816";font-weight:500;}.cls-5{letter-spacing:-0.02em;}.cls-6{letter-spacing:-0.03em;}.cls-7{letter-spacing:-0.02em;}.cls-8{letter-spacing:-0.02em;}.cls-10{letter-spacing:0em;}.cls-11{letter-spacing:0em;}.cls-12{letter-spacing:-0.01em;}.cls-13{letter-spacing:-0.01em;}.cls-14{letter-spacing:-0.01em;}.cls-15{letter-spacing:0em;}.cls-16{letter-spacing:0.01em;}</style></defs><path class="cls-1" d="M402.26,302.34c-.73,34.62-28.21,63.17-39.85,73.7a1.28,1.28,0,0,1-1.76,0c-2.58-2.54-6-6.05-9.61-10.39-.42-.51-.83-1-1.27-1.54-12-14.63-26.42-37.62-25.9-63.34.74-34.82,28-65,39.88-76.43a1.27,1.27,0,0,1,1.82,0C376.93,236.25,403,267.53,402.26,302.34Z"/><path class="cls-2" d="M335.91,370.46c2.19,2.79,4.32,5.33,6.29,7.58A86,86,0,0,0,335.91,370.46Z"/><path class="cls-3" d="M342.82,382.14c-13.58,1.34-30.9,9.24-53.83,18.72a34.16,34.16,0,0,1-13.26,2.71,31.61,31.61,0,0,1-12.31-2.6c-.89-.39-1.79-.81-2.65-1.26a43.78,43.78,0,0,1-3.92-2.42c-.86-.61-1.72-1.26-2.55-2-5.74-4.73-13-14.63-11.07-29.5,1.17-9.05,7.72-19.28,13.37-23.06.8-.54,1.64-1.05,2.44-1.49s1.61-.89,2.38-1.27c.54-.25,1.06-.5,1.57-.69a14.41,14.41,0,0,1,1.57-.6,25.13,25.13,0,0,1,5.06-1.38A32.17,32.17,0,0,1,278,337a55.48,55.48,0,0,1,8.76,1.55c5.11,1.31,29.07,9.73,49.11,31.92A86,86,0,0,1,342.2,378c.54.68,1.05,1.38,1.56,2.09A1.29,1.29,0,0,1,342.82,382.14Z"/><path class="cls-4" d="M378.28,381.38a163.68,163.68,0,0,0,12.78-14.33c11.54-14.6,25.39-37.59,25.92-64.41s-12.26-51.11-23.12-66.81a183.82,183.82,0,0,0-16.24-20.25c-8.82-9.49-9.94-9.5-12.59-9.57s-3.74-.06-12.95,9.05A178.32,178.32,0,0,0,335,234.61c-11.51,15.27-25.34,39.06-25.87,65.81a92.77,92.77,0,0,0,6.53,35.11c-14.16-8.24-25.06-11.11-25.28-11.18a62.23,62.23,0,0,0-15.09-2.13,46.78,46.78,0,0,0-26.83,8.37c-9.67,6.44-18.17,20.79-19.77,33.39-2.11,16.54,4,32.44,16.25,42.62,9.11,7.54,19.71,11.53,30.69,11.59a48.59,48.59,0,0,0,18.93-3.8c3.08-1.26,6.06-2.53,8.95-3.73,12.25-5.11,22.67-9.47,31.14-11.92C315.35,413.8,316,435.56,317.94,438c1.78,2.28,16.92-27.62,48.26-36.83,32.06-9.42,41.59,3.43,44.86-9.35C414.23,379.46,398.37,377.36,378.28,381.38ZM363.75,224.3a1.27,1.27,0,0,1,1.82,0c11.36,11.9,37.4,43.18,36.69,78-.73,34.62-28.21,63.17-39.85,73.7a1.28,1.28,0,0,1-1.76,0c-2.58-2.54-6-6.05-9.61-10.39-.42-.51-.83-1-1.27-1.54-12-14.63-26.42-37.62-25.9-63.34C324.61,265.91,351.91,235.76,363.75,224.3ZM289,400.86a34.16,34.16,0,0,1-13.26,2.71,31.61,31.61,0,0,1-12.31-2.6c-.89-.39-1.76-.81-2.65-1.26a43.78,43.78,0,0,1-3.92-2.42c-.86-.61-1.72-1.26-2.55-2-5.74-4.73-13-14.63-11.07-29.5,1.17-9.05,7.72-19.28,13.37-23.06.8-.54,1.64-1.05,2.44-1.49s1.61-.89,2.38-1.27c.54-.25,1.06-.5,1.57-.69a9.18,9.18,0,0,1,1.57-.6,25.13,25.13,0,0,1,5.06-1.38,30.59,30.59,0,0,1,5.61-.48A27,27,0,0,1,278,337a55.48,55.48,0,0,1,8.76,1.55c5.11,1.31,29.07,9.73,49.11,31.92A86,86,0,0,1,342.2,378c.54.68,1.05,1.38,1.56,2.09a1.29,1.29,0,0,1-.94,2C329.24,383.48,311.92,391.38,289,400.86Z"/><text class="cls-5" transform="translate(447.07 398.24)">Q<tspan class="cls-6" x="73.97" y="0">u</tspan><tspan x="126.65" y="0">é</tspan><tspan class="cls-7" x="174.99" y="0">be</tspan><tspan class="cls-8" x="279.72" y="0">c</tspan></text><text class="cls-9" transform="translate(447.92 310.15)">B<tspan class="cls-10" x="57.46" y="0">i</tspan><tspan class="cls-11" x="82.72" y="0">o</tspan><tspan class="cls-12" x="137.65" y="0">d</tspan><tspan class="cls-13" x="194.66" y="0">i</tspan><tspan class="cls-14" x="219.37" y="0">v</tspan><tspan class="cls-15" x="264.02" y="0">e</tspan><tspan x="313.81" y="0">rs</tspan><tspan class="cls-16" x="389.4" y="0">i</tspan><tspan x="415.65" y="0">té</tspan></text></svg>